<svg width="22" height="5" xmlns="http://www.w3.org/2000/svg">
  <g style="stroke:black; stroke-width:1; fill:black; fill-rule:evenodd;">
    <!--<circle cx="15" cy="80" r="3" />
    <path d="M12,80 
             a 5 5 0 0 0 11 0
             l -5 -50
             " fill="none" >
    </path>
    <path d="M 18 30
             c -1 -8, -1 -12, 5 -18
             l 2 4
             c -5 6, -7 6, -7 14
             m 7 -14
             c 1 2.5, 5 20, -5 26
             c -14 9, -12 26, 1 28
             c -19 0, -16 -27, -2 -33
             c 11 -9, 5 -18.5, 6 -21
             m -4 53
             a 8 8 0 1 0 -5 -4
             a 10 10 0 1 1 5 4" />-->
    <path d="M 0 3 h 22" />
  </g>

</svg>