<svg width="30" height="30"  xmlns="http://www.w3.org/2000/svg">
	<g stroke="black" stroke-width="1" fill="black">
		<path d="M 11.3 8
             a 2.1 2.1 0 1 1 -2.1 2.1
           q 0 -4 5 -4.6
           q 6 0 7 4
           q 1 3 -6.7 7.1
           q -2.7 1.5 -3.7 4
           q 3 -1 7 1.5
           q 4.5 1 4.5 -2.5
           q -0.5 5 -3.5 5
           q -1 0 -4 -2
           q -5 -2 -6 2
           q 0 -3 3 -6
           q 2 -2 4 -4
           q 5 -5 0 -8.5
           q -5.5 -2 -5 2.5"/>

	</g>
</svg>