<svg width="30" height="30"  xmlns="http://www.w3.org/2000/svg">
	<g stroke="black" stroke-width="1" fill="black">
		<path d="M 13.5 8.3
             a 1.6 1.6 0 1 1 -1.6 1.6
           q 0 -4 5 -4.5
           q 5 0 6 5
           q 0 3 -4 4.5
           q 4 1.5 4 4.5
           q -1 5 -6 5
           q -5 -.5 -5 -4.5
           a 1.6 1.6 0 1 1 1.6 1.6
           q -1 .5 0 1
           q 4.5 4 6.8 -3
           q -1 -5 -5 -4.5
           q 4 .5 5 -4.5
           q -2.3 -7 -6.8 -3
           q -1 .5 0 1"/>

	</g>
</svg>